<?xml version="1.0" encoding="UTF-8" standalone="no"?>
<!-- Created with Inkscape (http://www.inkscape.org/) -->

<svg
   width="16"
   height="16"
   viewBox="0 0 4.2333333 4.2333333"
   version="1.1"
   id="svg826"
   inkscape:version="1.1.1 (3bf5ae0d25, 2021-09-20)"
   sodipodi:docname="Eye Close.svg"
   xmlns:inkscape="http://www.inkscape.org/namespaces/inkscape"
   xmlns:sodipodi="http://sodipodi.sourceforge.net/DTD/sodipodi-0.dtd"
   xmlns="http://www.w3.org/2000/svg"
   xmlns:svg="http://www.w3.org/2000/svg">
  <sodipodi:namedview
     id="namedview828"
     pagecolor="#ffffff"
     bordercolor="#666666"
     borderopacity="1.0"
     inkscape:pageshadow="2"
     inkscape:pageopacity="0.0"
     inkscape:pagecheckerboard="false"
     inkscape:document-units="mm"
     showgrid="false"
     units="px"
     inkscape:snap-page="false"
     inkscape:zoom="45.254834"
     inkscape:cx="7.258893"
     inkscape:cy="8.6952037"
     inkscape:window-width="1920"
     inkscape:window-height="1017"
     inkscape:window-x="-8"
     inkscape:window-y="-8"
     inkscape:window-maximized="1"
     inkscape:current-layer="layer1"
     inkscape:snap-midpoints="false"
     inkscape:snap-center="false"
     showborder="true"
     inkscape:object-paths="true" />
  <defs
     id="defs823" />
  <g
     inkscape:label="Layer 1"
     inkscape:groupmode="layer"
     id="layer1">
    <path
       id="path909"
       style="display:none;fill:#3a2c60;fill-opacity:1;stroke-width:1.58696;stroke-linecap:round"
       d="M 15.867417,7.3618653 C 13.996601,5.7427082 12.418559,2.3462024 8,2.3462025 3.5814412,2.3462024 2.0103284,6.0086651 0.11048544,7.5607391 -0.11205072,7.7425397 -0.08447894,8.2342222 0.13258252,8.4225255 1.9998156,10.042371 3.5814415,13.659159 8,13.659159 c 4.418558,0 6.188627,-3.636537 7.867417,-5.2587306 0.248952,-0.2405596 0.261764,-0.8120114 0,-1.0385631 z M 8.00195,4.0742188 c 2.181975,0 3.970703,1.7906816 3.970703,3.9726562 0,2.181974 -1.788728,3.970703 -3.970703,3.970703 -2.1819745,0 -3.9707031,-1.788729 -3.9707031,-3.970703 0,-2.1819746 1.7887286,-3.9726562 3.9707031,-3.9726562 z m 0,1.9414062 c -1.1320747,0 -2.0292969,0.8991749 -2.0292969,2.03125 0,1.1320747 0.8972222,2.029297 2.0292969,2.029297 1.1320747,0 2.029297,-0.8972223 2.029297,-2.029297 0,-1.1320751 -0.8972223,-2.03125 -2.029297,-2.03125 z"
       sodipodi:nodetypes="sssssssssssssssss"
       transform="scale(0.26458333)" />
    <path
       style="display:inline;fill:none;stroke:#fcfcfc;stroke-width:0.48191;stroke-linecap:round;stroke-linejoin:miter;stroke-miterlimit:4;stroke-dasharray:none;stroke-opacity:1"
       d="m 0.24091767,2.1047482 c 0,0 0.0168503,0.098942 0.0436595,0.1261999 0.0268092,0.027258 0.19508135,0.2387216 0.39324428,0.4886844 0.19816295,0.249963 0.56284175,0.8659397 1.43367695,0.8943448 0.8708354,0.028405 1.4141785,-0.8331187 1.4141785,-0.8331187 0,0 0.2520968,-0.3487055 0.323473,-0.4359671 0.071376,-0.087262 0.1484962,-0.1490967 0.1453413,-0.2318051"
       id="path1074" />
    <rect
       style="fill:#ffffff;stroke:#ffffff;stroke-width:0.0999998;stroke-linecap:round;stroke-miterlimit:4;stroke-dasharray:none;stroke-opacity:1;fill-opacity:1"
       id="rect3107"
       height="0.74014461"
       x="2.5293231"
       y="1.7660517"
       ry="0.014616268"
       width="0.098872244"
       transform="rotate(40.863951)" />
    <rect
       style="fill:#ffffff;stroke:#ffffff;stroke-width:0.0999998;stroke-linecap:round;stroke-miterlimit:4;stroke-dasharray:none;stroke-opacity:1;fill-opacity:1"
       id="rect1042"
       height="0.66709775"
       x="2.9043937"
       y="2.2449322"
       ry="0.014616268"
       width="0.087214127"
       transform="rotate(31.003433)" />
    <rect
       style="fill:#ffffff;stroke:#ffffff;stroke-width:0.0999998;stroke-linecap:round;stroke-miterlimit:4;stroke-dasharray:none;stroke-opacity:1;fill-opacity:1"
       id="rect1044"
       height="0.54706979"
       x="2.1815686"
       y="3.5761077"
       ry="0.014616268"
       width="0.090539433"
       transform="rotate(1.003433)" />
    <rect
       style="fill:#ffffff;stroke:#ffffff;stroke-width:0.0999998;stroke-linecap:round;stroke-miterlimit:4;stroke-dasharray:none;stroke-opacity:1;fill-opacity:1"
       id="rect1055"
       height="0.60864115"
       x="0.94866765"
       y="4.3989806"
       ry="0.014616268"
       width="0.089421242"
       transform="rotate(-28.996567)" />
    <rect
       style="fill:#ffffff;stroke:#ffffff;stroke-width:0.0999998;stroke-linecap:round;stroke-miterlimit:4;stroke-dasharray:none;stroke-opacity:1;fill-opacity:1"
       id="rect1057"
       height="0.61945945"
       x="0.49528772"
       y="4.547606"
       ry="0.014616268"
       width="0.09222284"
       transform="rotate(-43.996567)" />
  </g>
</svg>
