<?xml version="1.0" encoding="UTF-8" standalone="no"?>
<svg
   version="1.1"
   id="svg2"
   sodipodi:docname="Transactions.svg"
   width="48"
   height="48"
   inkscape:version="1.1.1 (3bf5ae0d25, 2021-09-20)"
   xmlns:inkscape="http://www.inkscape.org/namespaces/inkscape"
   xmlns:sodipodi="http://sodipodi.sourceforge.net/DTD/sodipodi-0.dtd"
   xmlns:xlink="http://www.w3.org/1999/xlink"
   xmlns="http://www.w3.org/2000/svg"
   xmlns:svg="http://www.w3.org/2000/svg">
  <defs
     id="defs6">
    <linearGradient
       inkscape:collect="always"
       id="linearGradient1517">
      <stop
         style="stop-color:#005715;stop-opacity:1"
         offset="0"
         id="stop1513" />
      <stop
         style="stop-color:#47ffa0;stop-opacity:1"
         offset="1"
         id="stop1515" />
    </linearGradient>
    <linearGradient
       inkscape:collect="always"
       xlink:href="#linearGradient1517"
       id="linearGradient1288"
       x1="25.098299"
       y1="20.841209"
       x2="25.098299"
       y2="8.010397"
       gradientUnits="userSpaceOnUse"
       gradientTransform="matrix(0.77506041,0,0,1.2162447,0.52223469,3.9396561)" />
    <linearGradient
       inkscape:collect="always"
       xlink:href="#linearGradient1517"
       id="linearGradient8076"
       gradientUnits="userSpaceOnUse"
       gradientTransform="matrix(0.77506041,0,0,1.2162447,0.52223469,3.9396561)"
       x1="25.098299"
       y1="20.841209"
       x2="25.098299"
       y2="8.010397" />
  </defs>
  <sodipodi:namedview
     id="namedview4"
     pagecolor="#ffffff"
     bordercolor="#666666"
     borderopacity="1.0"
     inkscape:pageshadow="2"
     inkscape:pageopacity="0.0"
     inkscape:pagecheckerboard="0"
     showgrid="false"
     inkscape:zoom="14.106667"
     inkscape:cx="25.484404"
     inkscape:cy="23.286861"
     inkscape:window-width="1920"
     inkscape:window-height="1017"
     inkscape:window-x="-8"
     inkscape:window-y="-8"
     inkscape:window-maximized="1"
     inkscape:current-layer="svg2" />
  <g
     id="g9771">
    <path
       id="rect848"
       style="fill:url(#linearGradient1288);stroke:#31fc4c;stroke-width:0.970908;stroke-linecap:round;stroke-linejoin:round;stroke-opacity:1;paint-order:markers fill stroke;fill-opacity:1.0"
       d="M 3.1045483,13.596042 H 32.993458 l 2.252656,14.915667 H 5.357205 Z"
       sodipodi:nodetypes="ccccc" />
    <g
       aria-label="$"
       id="g15108"
       style="font-size:14.4263px;line-height:1.25;font-family:'Little Days';-inkscape-font-specification:'Little Days';fill:none;stroke:#003385;stroke-width:0.361"
       transform="matrix(3.14032,0,0.47217806,1.2116232,-51.434797,-4.1739762)">
      <path
         d="m 19.772514,16.007982 -0.05771,0.591478 q -0.403936,0 -0.793446,0.129837 -0.389511,0.129837 -0.706889,0.375084 -0.302952,0.245247 -0.504921,0.605904 -0.187542,0.346231 -0.201968,0.793447 v 0.07213 q 0,0.38951 0.158689,0.692463 0.15869,0.288526 0.432789,0.490494 0.2741,0.201968 0.605905,0.346231 0.346231,0.129837 0.721315,0.201968 l -0.259673,3.202639 h -0.05771 q -0.288526,0 -0.562625,-0.05771 -0.259674,-0.05771 -0.476068,-0.187542 -0.216395,-0.129837 -0.360658,-0.346231 -0.144263,-0.216395 -0.173115,-0.533774 0,-0.173115 -0.173116,-0.173115 h -0.02885 q -0.100985,0 -0.144263,0.05771 -0.04328,0.04328 -0.04328,0.11541 0,0.05771 0.02885,0.115411 0.04328,0.04328 0.115411,0.0577 h -0.08656 q 0.08656,0.346231 0.2741,0.591478 0.187541,0.245247 0.447215,0.403937 0.259673,0.158689 0.562626,0.245247 0.317378,0.07213 0.649183,0.07213 l -0.07213,0.894431 q 0,0.08656 0.04328,0.144263 0.05771,0.04328 0.129837,0.04328 0.07213,0 0.115411,-0.04328 0.05771,-0.04328 0.05771,-0.129837 l 0.07213,-0.937709 q 0.403937,-0.04328 0.77902,-0.187542 0.375084,-0.158689 0.66361,-0.403937 0.288526,-0.245247 0.461642,-0.562625 0.173115,-0.331805 0.173115,-0.735742 0,-0.375083 -0.144263,-0.721315 -0.129836,-0.346231 -0.375083,-0.605904 -0.230821,-0.2741 -0.562626,-0.447215 -0.317379,-0.173116 -0.678036,-0.216395 l 0.245247,-3.00067 q 0.476068,0.07213 0.851152,0.375083 0.375083,0.288526 0.490494,0.807873 0.04328,0.129837 0.158689,0.129837 0.07213,0 0.115411,-0.04328 0.05771,-0.0577 0.05771,-0.129837 0,-0.04328 -0.01443,-0.07213 -0.144263,-0.649184 -0.605904,-0.980989 -0.447215,-0.346231 -1.024267,-0.418362 l 0.04328,-0.605905 q 0,-0.08656 -0.05771,-0.129837 -0.04328,-0.05771 -0.11541,-0.05771 -0.07213,0 -0.129837,0.04328 -0.04328,0.04328 -0.04328,0.129837 z M 17.9548,18.244058 q 0.04328,-0.317378 0.201969,-0.548199 0.173115,-0.245247 0.403936,-0.403936 0.245247,-0.173116 0.533773,-0.259674 0.288526,-0.08656 0.591478,-0.08656 l -0.23082,3.000671 q -0.259674,-0.02885 -0.5482,-0.129837 -0.274099,-0.100984 -0.519347,-0.259673 -0.23082,-0.173116 -0.38951,-0.38951 -0.144263,-0.216395 -0.144263,-0.490495 0,-0.216394 0.100984,-0.432789 z m 2.207224,2.149519 q 0.504921,0.158689 0.764594,0.620331 0.259674,0.447215 0.259674,0.937709 0,1.312794 -1.673451,1.529188 l 0.259673,-3.116081 q 0.100984,0.01443 0.187542,0.02885 0.100984,0 0.201968,0 z m -2.957391,2.163945 q -0.01443,-0.01443 -0.01443,-0.0577 v 0.0577 z"
         id="path15106" />
    </g>
  </g>
  <g
     id="g8074"
     transform="translate(9.7826087,8.5066163)">
    <path
       id="path8068"
       style="fill:url(#linearGradient8076);fill-opacity:1.0;stroke:#31fc68;stroke-width:0.970908;stroke-linecap:round;stroke-linejoin:round;stroke-opacity:1;paint-order:markers fill stroke"
       d="M 3.1045483,13.596042 H 32.993458 l 2.252656,14.915667 H 5.357205 Z"
       sodipodi:nodetypes="ccccc" />
    <g
       aria-label="$"
       id="text10040"
       style="font-size:14.4263px;line-height:1.25;font-family:'Little Days';-inkscape-font-specification:'Little Days';fill:none;stroke:#003385;stroke-width:0.361"
       transform="matrix(3.14032,0,0.47217806,1.2116232,-51.222131,-3.8904226)">
      <path
         d="m 19.772514,16.007982 -0.05771,0.591478 q -0.403936,0 -0.793446,0.129837 -0.389511,0.129837 -0.706889,0.375084 -0.302952,0.245247 -0.504921,0.605904 -0.187542,0.346231 -0.201968,0.793447 v 0.07213 q 0,0.38951 0.158689,0.692463 0.15869,0.288526 0.432789,0.490494 0.2741,0.201968 0.605905,0.346231 0.346231,0.129837 0.721315,0.201968 l -0.259673,3.202639 h -0.05771 q -0.288526,0 -0.562625,-0.05771 -0.259674,-0.05771 -0.476068,-0.187542 -0.216395,-0.129837 -0.360658,-0.346231 -0.144263,-0.216395 -0.173115,-0.533774 0,-0.173115 -0.173116,-0.173115 h -0.02885 q -0.100985,0 -0.144263,0.05771 -0.04328,0.04328 -0.04328,0.11541 0,0.05771 0.02885,0.115411 0.04328,0.04328 0.115411,0.0577 h -0.08656 q 0.08656,0.346231 0.2741,0.591478 0.187541,0.245247 0.447215,0.403937 0.259673,0.158689 0.562626,0.245247 0.317378,0.07213 0.649183,0.07213 l -0.07213,0.894431 q 0,0.08656 0.04328,0.144263 0.05771,0.04328 0.129837,0.04328 0.07213,0 0.115411,-0.04328 0.05771,-0.04328 0.05771,-0.129837 l 0.07213,-0.937709 q 0.403937,-0.04328 0.77902,-0.187542 0.375084,-0.158689 0.66361,-0.403937 0.288526,-0.245247 0.461642,-0.562625 0.173115,-0.331805 0.173115,-0.735742 0,-0.375083 -0.144263,-0.721315 -0.129836,-0.346231 -0.375083,-0.605904 -0.230821,-0.2741 -0.562626,-0.447215 -0.317379,-0.173116 -0.678036,-0.216395 l 0.245247,-3.00067 q 0.476068,0.07213 0.851152,0.375083 0.375083,0.288526 0.490494,0.807873 0.04328,0.129837 0.158689,0.129837 0.07213,0 0.115411,-0.04328 0.05771,-0.0577 0.05771,-0.129837 0,-0.04328 -0.01443,-0.07213 -0.144263,-0.649184 -0.605904,-0.980989 -0.447215,-0.346231 -1.024267,-0.418362 l 0.04328,-0.605905 q 0,-0.08656 -0.05771,-0.129837 -0.04328,-0.05771 -0.11541,-0.05771 -0.07213,0 -0.129837,0.04328 -0.04328,0.04328 -0.04328,0.129837 z M 17.9548,18.244058 q 0.04328,-0.317378 0.201969,-0.548199 0.173115,-0.245247 0.403936,-0.403936 0.245247,-0.173116 0.533773,-0.259674 0.288526,-0.08656 0.591478,-0.08656 l -0.23082,3.000671 q -0.259674,-0.02885 -0.5482,-0.129837 -0.274099,-0.100984 -0.519347,-0.259673 -0.23082,-0.173116 -0.38951,-0.38951 -0.144263,-0.216395 -0.144263,-0.490495 0,-0.216394 0.100984,-0.432789 z m 2.207224,2.149519 q 0.504921,0.158689 0.764594,0.620331 0.259674,0.447215 0.259674,0.937709 0,1.312794 -1.673451,1.529188 l 0.259673,-3.116081 q 0.100984,0.01443 0.187542,0.02885 0.100984,0 0.201968,0 z m -2.957391,2.163945 q -0.01443,-0.01443 -0.01443,-0.0577 v 0.0577 z"
         id="path10566" />
    </g>
  </g>
</svg>
